# xmcd CD database file
#
# Track frame offsets:
#	183
#	11363
#	26200
#	38055
#	51095
#	64548
#	79905
#	92938
#	106433
#	117375
#	129825
#	141850
#
# Disc length: 2035 seconds
#
# Revision: 0
# Processed by: cddbd v1.5.2PL0 Copyright (c) Steve Scherf et al.
# Submitted via: CDex 1.51
#
DISCID=9c07f10c
DTITLE=Coleman Hawkins - Hawk Talk
DYEAR=1963
DGENRE=Jazz
TTITLE0=Hawk Talk
TTITLE1=Whisper To Me
TTITLE2=Pebbles
TTITLE3=Lazy Butterfly
TTITLE4=Not Quite Night
TTITLE5=Lullaby
TTITLE6=Easy Walker
TTITLE7=Lonely Tenor
TTITLE8=I Knew Dana
TTITLE9=Misty Morning
TTITLE10=Traumerei
TTITLE11=All The Time
EXTD=YEAR: 1963
EXTT0=
EXTT1=
EXTT2=
EXTT3=
EXTT4=
EXTT5=
EXTT6=
EXTT7=
EXTT8=
EXTT9=
EXTT10=
EXTT11=
PLAYORDER=
